<?xml version="1.0" encoding="UTF-8" standalone="no"?>
<!-- Created with Inkscape (http://www.inkscape.org/) -->

<svg
   xmlns:dc="http://purl.org/dc/elements/1.1/"
   xmlns:cc="http://creativecommons.org/ns#"
   xmlns:rdf="http://www.w3.org/1999/02/22-rdf-syntax-ns#"
   xmlns:svg="http://www.w3.org/2000/svg"
   xmlns="http://www.w3.org/2000/svg"
   xmlns:sodipodi="http://sodipodi.sourceforge.net/DTD/sodipodi-0.dtd"
   xmlns:inkscape="http://www.inkscape.org/namespaces/inkscape"
   width="210mm"
   height="297mm"
   id="svg2"
   version="1.1"
   inkscape:version="0.48.3.1 r9886"
   sodipodi:docname="more-logo.svg">
  <defs
     id="defs4">
    <marker
       inkscape:stockid="Arrow2Mend"
       orient="auto"
       refY="0.0"
       refX="0.0"
       id="Arrow2Mend"
       style="overflow:visible;">
      <path
         id="path3790"
         style="fill-rule:evenodd;stroke-width:0.62500000;stroke-linejoin:round;"
         d="M 8.7185878,4.0337352 L -2.2072895,0.016013256 L 8.7185884,-4.0017078 C 6.9730900,-1.6296469 6.9831476,1.6157441 8.7185878,4.0337352 z "
         transform="scale(0.6) rotate(180) translate(0,0)" />
    </marker>
    <marker
       inkscape:stockid="Arrow1Mend"
       orient="auto"
       refY="0.0"
       refX="0.0"
       id="Arrow1Mend"
       style="overflow:visible;">
      <path
         id="path3772"
         d="M 0.0,0.0 L 5.0,-5.0 L -12.5,0.0 L 5.0,5.0 L 0.0,0.0 z "
         style="fill-rule:evenodd;stroke:#000000;stroke-width:1.0pt;"
         transform="scale(0.4) rotate(180) translate(10,0)" />
    </marker>
    <marker
       inkscape:stockid="Arrow2Mstart"
       orient="auto"
       refY="0.0"
       refX="0.0"
       id="Arrow2Mstart"
       style="overflow:visible">
      <path
         id="path3787"
         style="fill-rule:evenodd;stroke-width:0.62500000;stroke-linejoin:round"
         d="M 8.7185878,4.0337352 L -2.2072895,0.016013256 L 8.7185884,-4.0017078 C 6.9730900,-1.6296469 6.9831476,1.6157441 8.7185878,4.0337352 z "
         transform="scale(0.6) translate(0,0)" />
    </marker>
    <marker
       inkscape:stockid="Arrow1Mstart"
       orient="auto"
       refY="0.0"
       refX="0.0"
       id="Arrow1Mstart"
       style="overflow:visible">
      <path
         id="path3769"
         d="M 0.0,0.0 L 5.0,-5.0 L -12.5,0.0 L 5.0,5.0 L 0.0,0.0 z "
         style="fill-rule:evenodd;stroke:#000000;stroke-width:1.0pt"
         transform="scale(0.4) translate(10,0)" />
    </marker>
    <marker
       inkscape:stockid="Arrow2Lend"
       orient="auto"
       refY="0.0"
       refX="0.0"
       id="Arrow2Lend"
       style="overflow:visible;">
      <path
         id="path3784"
         style="fill-rule:evenodd;stroke-width:0.62500000;stroke-linejoin:round;"
         d="M 8.7185878,4.0337352 L -2.2072895,0.016013256 L 8.7185884,-4.0017078 C 6.9730900,-1.6296469 6.9831476,1.6157441 8.7185878,4.0337352 z "
         transform="scale(1.1) rotate(180) translate(1,0)" />
    </marker>
    <marker
       inkscape:stockid="Arrow2Lstart"
       orient="auto"
       refY="0.0"
       refX="0.0"
       id="Arrow2Lstart"
       style="overflow:visible">
      <path
         id="path3781"
         style="fill-rule:evenodd;stroke-width:0.62500000;stroke-linejoin:round"
         d="M 8.7185878,4.0337352 L -2.2072895,0.016013256 L 8.7185884,-4.0017078 C 6.9730900,-1.6296469 6.9831476,1.6157441 8.7185878,4.0337352 z "
         transform="scale(1.1) translate(1,0)" />
    </marker>
  </defs>
  <sodipodi:namedview
     id="base"
     pagecolor="#ffffff"
     bordercolor="#666666"
     borderopacity="1.0"
     inkscape:pageopacity="0.0"
     inkscape:pageshadow="2"
     inkscape:zoom="7.9195959"
     inkscape:cx="201.60063"
     inkscape:cy="686.00808"
     inkscape:document-units="px"
     inkscape:current-layer="layer1"
     showgrid="false"
     inkscape:window-width="1600"
     inkscape:window-height="838"
     inkscape:window-x="-8"
     inkscape:window-y="-8"
     inkscape:window-maximized="1" />
  <metadata
     id="metadata7">
    <rdf:RDF>
      <cc:Work
         rdf:about="">
        <dc:format>image/svg+xml</dc:format>
        <dc:type
           rdf:resource="http://purl.org/dc/dcmitype/StillImage" />
        <dc:title></dc:title>
      </cc:Work>
    </rdf:RDF>
  </metadata>
  <g
     inkscape:label="Ebene 1"
     inkscape:groupmode="layer"
     id="layer1">
    <path
       id="path6653"
       style="font-size:40px;font-style:normal;font-variant:normal;font-weight:normal;font-stretch:normal;line-height:125%;letter-spacing:0px;word-spacing:0px;fill:#236264;fill-opacity:1;stroke:none;font-family:Aller Display;-inkscape-font-specification:Aller Display"
       d="m 239.49916,347.71042 c -0.85369,10e-6 -1.58713,0.26674 -2.20032,0.80017 -0.6132,0.53346 -0.97311,1.36008 -1.07971,2.47986 l 6.40015,0 c -0.0537,-0.93342 -0.34059,-1.71345 -0.8606,-2.34009 -0.52003,-0.62661 -1.2732,-0.93993 -2.25952,-0.93994 z m -3.20068,7.88086 c 0.29377,1.09294 0.80728,1.86605 1.54052,2.31933 0.73323,0.4533 1.70003,0.67994 2.9004,0.67994 0.77309,0 1.63959,-0.0934 2.59948,-0.28016 0.95987,-0.18676 1.90652,-0.4665 2.83997,-0.83923 0.37352,0.69337 0.70026,1.51998 0.98022,2.47986 0.27993,0.95988 0.43333,1.95984 0.46021,2.99988 -2.37388,0.87972 -4.80064,1.31958 -7.28028,1.31958 -1.91976,0 -3.56629,-0.26673 -4.93957,-0.80017 -1.3733,-0.53345 -2.49329,-1.2734 -3.35999,-2.21985 -0.8667,-0.94645 -1.50675,-2.07295 -1.92016,-3.37952 -0.41341,-1.30655 -0.62012,-2.73335 -0.62012,-4.28039 0,-1.52017 0.21322,-2.94677 0.63965,-4.27979 0.42643,-1.33299 1.06648,-2.49286 1.92017,-3.47961 0.85367,-0.98672 1.92036,-1.76675 3.20007,-2.34009 1.27969,-0.5733 2.77282,-0.85997 4.47937,-0.85999 1.41356,2e-5 2.67373,0.23989 3.78052,0.71961 1.10675,0.47975 2.04669,1.13975 2.81982,1.97998 0.77309,0.84027 1.36635,1.85365 1.77979,3.04016 0.41339,1.18654 0.62009,2.47316 0.62011,3.85986 -2e-5,0.72023 -0.0334,1.367 -0.10009,1.94031 -0.0668,0.57333 -0.12657,1.04676 -0.17945,1.42029 z" />
    <path
       style="font-size:40px;font-style:normal;font-variant:normal;font-weight:normal;font-stretch:normal;line-height:125%;letter-spacing:0px;word-spacing:0px;fill:#236264;fill-opacity:1;stroke:none;font-family:Aller Display;-inkscape-font-specification:Aller Display"
       d="m 151.81117,335.11032 c 0.55989,-0.0797 1.16658,-0.15296 1.82007,-0.21973 0.65348,-0.0667 1.26017,-0.10006 1.82007,-0.10009 0.53303,3e-5 1.11307,0.0334 1.74011,0.10009 0.62703,0.0668 1.20706,0.14001 1.74011,0.21973 l 5.67994,14.88037 5.88012,-14.88037 c 0.53302,-0.0797 1.07298,-0.15296 1.61988,-0.21973 0.54685,-0.0667 1.0868,-0.10006 1.61987,-0.10009 0.55987,3e-5 1.13319,0.0334 1.71997,0.10009 0.58672,0.0668 1.16005,0.14001 1.71997,0.21973 l 1.35986,28.56079 c -0.42646,0.0797 -0.89968,0.15971 -1.41967,0.23987 -0.52005,0.0802 -1.2069,0.12024 -2.06055,0.12024 -0.93264,0 -2.03901,-0.12004 -3.31909,-0.36011 l -0.56031,-16.56006 -4.40063,10.91919 c -0.47935,0.0806 -0.95908,0.14751 -1.43921,0.20081 -0.48016,0.0533 -0.92043,0.08 -1.3208,0.0799 -0.39959,1e-5 -0.8128,-0.0201 -1.23962,-0.0604 -0.42686,-0.0403 -0.86692,-0.11372 -1.32019,-0.22034 l -3.91968,-10.75927 -0.43946,16.40014 c -1.12061,0.24007 -2.1875,0.36011 -3.20068,0.36011 -0.93343,0 -2.01335,-0.12004 -3.23975,-0.36011 z"
       id="path6637" />
    <path
       id="path4933"
       style="fill:none;stroke:#000000;stroke-width:1.06200004;stroke-linecap:butt;stroke-linejoin:miter;stroke-miterlimit:4;stroke-opacity:1;stroke-dasharray:none;marker-start:url(#Arrow2Mstart);marker-end:url(#Arrow2Mend)"
       d="m 161.46863,353.78844 c 0,0 78.3124,-0.76841 83.60526,-0.65921 2.40619,-2.1975 0.49978,-6.45484 -1.59175,-7.73133 -2.27634,-1.38928 -5.98426,-1.83858 -8.75,0.89285 -5.83847,5.76604 -1.34746,13.84627 2.5,14.91072 4.32571,1.19677 5.00341,0.54004 12.14626,-1.58363"
       inkscape:connector-curvature="0"
       sodipodi:nodetypes="ccsssc" />
    <path
       style="font-size:40px;font-style:normal;font-variant:normal;font-weight:normal;font-stretch:normal;line-height:125%;letter-spacing:0px;word-spacing:0px;fill:#236264;fill-opacity:1;stroke:none;font-family:Aller Display;-inkscape-font-specification:Aller Display"
       d="m 206.04945,335.11032 c 1.30697,-0.13262 2.51363,-0.25896 3.62,-0.37903 1.10636,-0.12 2.27314,-0.18002 3.50037,-0.18005 1.46646,3e-5 2.93313,0.14 4.40002,0.41992 1.46686,0.27998 2.77362,0.76663 3.92029,1.45996 1.14663,0.69339 2.07985,1.64004 2.79968,2.83997 0.71979,1.19997 1.07969,2.71995 1.07971,4.55993 -2e-5,0.98635 -0.11334,1.87278 -0.33996,2.65931 -0.22667,0.78655 -0.52004,1.48662 -0.88013,2.10022 -0.36013,0.61362 -0.76011,1.14706 -1.19995,1.60034 -0.43988,0.4533 -0.87303,0.83985 -1.29944,1.15967 l 6.23901,12.32055 c -0.63967,0.10661 -1.33954,0.18657 -2.09961,0.23987 -0.76011,0.0533 -1.44655,0.08 -2.05932,0.08 -0.53388,0 -1.1542,-0.0267 -1.86096,-0.08 -0.70681,-0.0533 -1.32672,-0.13326 -1.85975,-0.23987 l -5.67993,-13.07983 0.36011,-0.2002 c 0.31981,-0.1603 0.673,-0.42703 1.05957,-0.80017 0.38654,-0.37311 0.74665,-0.81969 1.08032,-1.33972 0.33365,-0.52 0.6138,-1.10004 0.84046,-1.74011 0.22663,-0.64004 0.33995,-1.30675 0.33996,-2.00012 -10e-6,-1.33381 -0.37334,-2.30731 -1.11999,-2.92054 -0.74668,-0.61317 -1.66688,-0.91977 -2.76062,-0.9198 -0.26613,3e-5 -0.49257,0.0135 -0.67932,0.0403 -0.18678,0.0269 -0.30702,0.0533 -0.36072,0.0793 l 0,22.88086 c -1.41277,0.24007 -2.57284,0.36011 -3.48023,0.36011 -0.98633,0 -2.17285,-0.12004 -3.55957,-0.36011 z"
       id="path6651" />
    <path
       id="path6647"
       style="font-size:40px;font-style:normal;font-variant:normal;font-weight:normal;font-stretch:normal;line-height:125%;letter-spacing:0px;word-spacing:0px;fill:#236264;fill-opacity:1;stroke:none;font-family:Aller Display;-inkscape-font-specification:Aller Display"
       d="m 195.60268,353.55026 c -2e-5,-1.70653 -0.28668,-3.01309 -0.85999,-3.91968 -0.57334,-0.90656 -1.44675,-1.35984 -2.62024,-1.35986 -1.17351,2e-5 -2.04021,0.4533 -2.6001,1.35986 -0.5599,0.90659 -0.83985,2.21315 -0.83984,3.91968 -1e-5,1.68051 0.27994,2.97405 0.83984,3.88062 0.55989,0.90658 1.42659,1.35987 2.6001,1.35986 1.17349,10e-6 2.0469,-0.45328 2.62024,-1.35986 0.57331,-0.90657 0.85997,-2.20011 0.85999,-3.88062 z m -13.75977,0 c 0,-1.62596 0.21993,-3.11237 0.65979,-4.45923 0.43986,-1.34682 1.09314,-2.50018 1.95984,-3.46008 0.86669,-0.95986 1.9401,-1.69981 3.22021,-2.21985 1.28011,-0.52 2.76,-0.78001 4.4397,-0.78003 1.70653,2e-5 3.19986,0.26003 4.47998,0.78003 1.2801,0.52004 2.3535,1.25999 3.22022,2.21985 0.86668,0.9599 1.51996,2.11326 1.95984,3.46008 0.43983,1.34686 0.65976,2.83327 0.65979,4.45923 -3e-5,1.59995 -0.21996,3.06011 -0.65979,4.3805 -0.43988,1.32039 -1.09316,2.45382 -1.95984,3.40026 -0.86672,0.94646 -1.94012,1.67298 -3.22022,2.17957 -1.28012,0.50659 -2.77345,0.75989 -4.47998,0.75989 -1.6797,0 -3.15959,-0.2533 -4.4397,-0.75989 -1.28011,-0.50659 -2.35352,-1.23311 -3.22021,-2.17957 -0.8667,-0.94644 -1.51998,-2.07987 -1.95984,-3.40026 -0.43986,-1.32039 -0.65979,-2.78055 -0.65979,-4.3805 z" />
  </g>
</svg>
